<svg width="20" height="20" viewBox="0 0 20 20" fill="none" xmlns="http://www.w3.org/2000/svg">
<path d="M10.0001 0.833313C15.0628 0.833313 19.1667 4.93723 19.1667 9.99998C19.1667 15.0627 15.0628 19.1666 10.0001 19.1666C7.86282 19.1698 5.79223 18.423 4.14897 17.0565L3.9253 16.8649L4.75213 15.1214C5.93278 16.3315 7.49528 17.0965 9.17516 17.2869C10.855 17.4773 12.5491 17.0814 13.9706 16.1662C15.3922 15.2511 16.4538 13.8729 16.9759 12.2649C17.498 10.6569 17.4485 8.91787 16.8357 7.3422C16.2229 5.76652 15.0846 4.45097 13.6133 3.61821C12.1419 2.78545 10.4281 2.48663 8.76177 2.77233C7.09545 3.05804 5.57902 3.91072 4.46916 5.18604C3.3593 6.46137 2.72418 8.081 2.6713 9.77081L2.66672 9.99998H4.95838L2.47788 15.2396C1.40466 13.7034 0.830484 11.874 0.833385 9.99998C0.833385 4.93723 4.9373 0.833313 10.0001 0.833313ZM10.9167 4.49998V6.33331H13.2084V8.16665H8.16672C8.05218 8.16644 7.94172 8.20911 7.85708 8.28628C7.77245 8.36344 7.71976 8.4695 7.70942 8.58357C7.69907 8.69763 7.7318 8.81144 7.80117 8.90257C7.87054 8.99371 7.97152 9.05557 8.08422 9.07598L8.16672 9.08331H11.8334C12.4412 9.08331 13.0241 9.32476 13.4538 9.75453C13.8836 10.1843 14.1251 10.7672 14.1251 11.375C14.1251 11.9828 13.8836 12.5657 13.4538 12.9954C13.0241 13.4252 12.4412 13.6666 11.8334 13.6666H10.9167V15.5H9.08339V13.6666H6.79172V11.8333H11.8334C11.9479 11.8335 12.0584 11.7908 12.143 11.7137C12.2277 11.6365 12.2803 11.5305 12.2907 11.4164C12.301 11.3023 12.2683 11.1885 12.1989 11.0974C12.1296 11.0062 12.0286 10.9444 11.9159 10.924L11.8334 10.9166H8.16672C7.55893 10.9166 6.97604 10.6752 6.54627 10.2454C6.11649 9.81566 5.87505 9.23277 5.87505 8.62498C5.87505 8.01719 6.11649 7.4343 6.54627 7.00453C6.97604 6.57476 7.55893 6.33331 8.16672 6.33331H9.08339V4.49998H10.9167Z" fill="white"/>
</svg>
