<svg width="20" height="18" viewBox="0 0 20 18" fill="black" xmlns="http://www.w3.org/2000/svg">
<path d="M14.9016 15.0808C13.436 16.0105 11.7356 16.5028 9.99996 16.5C5.50663 16.5 1.7683 13.2667 0.984131 8.99999C1.34249 7.05893 2.31882 5.28574 3.76746 3.94499L1.15996 1.33999L2.33913 0.160828L18.8383 16.6608L17.6591 17.8392L14.9008 15.0808H14.9016ZM4.9458 5.12499C3.8133 6.15465 3.02439 7.50731 2.6858 8.99999C2.94604 10.1387 3.46852 11.2009 4.21163 12.1022C4.95475 13.0034 5.89799 13.7187 6.96626 14.1911C8.03453 14.6635 9.19834 14.88 10.365 14.8234C11.5317 14.7668 12.6691 14.4386 13.6866 13.865L11.9966 12.175C11.2772 12.6282 10.4251 12.8234 9.58016 12.7287C8.73519 12.634 7.9475 12.2549 7.34627 11.6537C6.74505 11.0525 6.36599 10.2648 6.27127 9.4198C6.17654 8.57483 6.37178 7.72275 6.82496 7.00333L4.9458 5.12499ZM10.7616 10.94L8.05996 8.23833C7.91169 8.61577 7.87679 9.02829 7.95955 9.42528C8.04232 9.82227 8.23915 10.1865 8.5259 10.4732C8.81265 10.76 9.17685 10.9568 9.57384 11.0396C9.97084 11.1223 10.3834 11.0874 10.7608 10.9392L10.7616 10.94ZM17.3391 12.8267L16.1466 11.635C16.7037 10.8411 17.1003 9.94598 17.3141 8.99999C17.0877 8.0081 16.6619 7.07262 16.0626 6.25041C15.4633 5.4282 14.7031 4.73643 13.8282 4.21716C12.9533 3.6979 11.9819 3.36197 10.9731 3.2298C9.96428 3.09763 8.93914 3.17198 7.95996 3.44833L6.64496 2.13333C7.68413 1.72499 8.81663 1.49999 9.99996 1.49999C14.4933 1.49999 18.2316 4.73333 19.0158 8.99999C18.7605 10.3881 18.1865 11.698 17.3391 12.8267ZM9.76913 5.25666C10.2996 5.22388 10.8309 5.30422 11.3279 5.49234C11.8249 5.68047 12.2763 5.97209 12.6521 6.34787C13.0279 6.72365 13.3195 7.17502 13.5076 7.67204C13.6957 8.16907 13.7761 8.7004 13.7433 9.23083L9.7683 5.25666H9.76913Z" fill="white"/>
</svg>
