<svg width="20" height="22" viewBox="0 0 20 22" fill="none" xmlns="http://www.w3.org/2000/svg">
<path d="M18.6667 21.8334H1.33333C1.04602 21.8334 0.770465 21.7192 0.567301 21.5161C0.364137 21.3129 0.25 21.0373 0.25 20.75V1.25002C0.25 0.962702 0.364137 0.687152 0.567301 0.483988C0.770465 0.280824 1.04602 0.166687 1.33333 0.166687H18.6667C18.954 0.166687 19.2295 0.280824 19.4327 0.483988C19.6359 0.687152 19.75 0.962702 19.75 1.25002V20.75C19.75 21.0373 19.6359 21.3129 19.4327 21.5161C19.2295 21.7192 18.954 21.8334 18.6667 21.8334ZM5.66667 7.75002V9.91669H14.3333V7.75002H5.66667ZM5.66667 12.0834V14.25H14.3333V12.0834H5.66667Z" fill="#0099DB"/>
</svg>
