<svg width="22" height="18" viewBox="0 0 22 18" fill="none" xmlns="http://www.w3.org/2000/svg">
<path d="M8.55246 8.54168H10.5416C11.6356 8.54168 12.6849 8.97627 13.4584 9.74986C14.232 10.5234 14.6666 11.5727 14.6666 12.6667H8.24904L8.24996 13.5833H15.5833V12.6667C15.5804 11.6913 15.2986 10.7371 14.7711 9.91668H17.4166C18.2831 9.91644 19.1319 10.1618 19.8646 10.6244C20.5973 11.0869 21.1839 11.7477 21.5563 12.5301C19.3884 15.391 15.8785 17.25 11.9166 17.25C9.38571 17.25 7.24163 16.7092 5.49996 15.7604V7.23176C6.61519 7.39151 7.66831 7.84344 8.55246 8.54168ZM3.66663 6.25001C3.89115 6.25004 4.10785 6.33247 4.27563 6.48167C4.44342 6.63086 4.55061 6.83645 4.57688 7.05943L4.58329 7.16668V15.4167C4.58329 15.6598 4.48672 15.893 4.31481 16.0649C4.1429 16.2368 3.90974 16.3333 3.66663 16.3333H1.83329C1.59018 16.3333 1.35702 16.2368 1.18511 16.0649C1.0132 15.893 0.916626 15.6598 0.916626 15.4167V7.16668C0.916626 6.92356 1.0132 6.6904 1.18511 6.5185C1.35702 6.34659 1.59018 6.25001 1.83329 6.25001H3.66663ZM12.5088 1.27709L12.8333 1.60251L13.1578 1.27801C13.3703 1.06371 13.623 0.893492 13.9015 0.777127C14.1799 0.660761 14.4786 0.600541 14.7804 0.599923C15.0822 0.599305 15.3811 0.658302 15.6601 0.773526C15.939 0.888751 16.1924 1.05793 16.4058 1.27136C16.6191 1.48479 16.7883 1.73826 16.9034 2.01722C17.0185 2.29618 17.0775 2.59514 17.0768 2.89692C17.0761 3.19871 17.0157 3.49739 16.8993 3.77581C16.7829 4.05423 16.6126 4.30691 16.3982 4.51934L12.8333 8.08334L9.26746 4.51751C9.05316 4.30502 8.88294 4.05229 8.76658 3.77384C8.65021 3.49538 8.58999 3.19669 8.58937 2.8949C8.58875 2.59311 8.64775 2.29417 8.76298 2.01524C8.8782 1.73632 9.04738 1.48289 9.26081 1.26953C9.47424 1.05616 9.72771 0.887047 10.0067 0.771902C10.2856 0.656756 10.5846 0.597844 10.8864 0.598547C11.1882 0.599251 11.4868 0.659555 11.7653 0.775999C12.0437 0.892444 12.2964 1.06273 12.5088 1.27709Z" fill="white"/>
</svg>
