<svg width="20" height="19" viewBox="0 0 20 19" fill="none" xmlns="http://www.w3.org/2000/svg">
<path d="M5.41671 9.08331C4.875 9.08331 4.33861 8.97662 3.83814 8.76932C3.33767 8.56202 2.88293 8.25817 2.49989 7.87513C2.11685 7.49209 1.813 7.03735 1.6057 6.53688C1.3984 6.03641 1.29171 5.50002 1.29171 4.95831C1.29171 4.41661 1.3984 3.88021 1.6057 3.37974C1.813 2.87928 2.11685 2.42454 2.49989 2.0415C2.88293 1.65846 3.33767 1.35461 3.83814 1.14731C4.33861 0.940009 4.875 0.833313 5.41671 0.833313C6.51073 0.833313 7.55994 1.26791 8.33352 2.0415C9.10711 2.81508 9.54171 3.86429 9.54171 4.95831C9.54171 6.05233 9.10711 7.10154 8.33352 7.87513C7.55994 8.64872 6.51073 9.08331 5.41671 9.08331ZM15.0417 12.75C14.0692 12.75 13.1366 12.3637 12.449 11.676C11.7613 10.9884 11.375 10.0558 11.375 9.08331C11.375 8.11085 11.7613 7.17822 12.449 6.49059C13.1366 5.80295 14.0692 5.41665 15.0417 5.41665C16.0142 5.41665 16.9468 5.80295 17.6344 6.49059C18.3221 7.17822 18.7084 8.11085 18.7084 9.08331C18.7084 10.0558 18.3221 10.9884 17.6344 11.676C16.9468 12.3637 16.0142 12.75 15.0417 12.75ZM15.0417 13.6666C16.1357 13.6666 17.1849 14.1012 17.9585 14.8748C18.7321 15.6484 19.1667 16.6976 19.1667 17.7916V18.25H10.9167V17.7916C10.9167 16.6976 11.3513 15.6484 12.1249 14.8748C12.8985 14.1012 13.9477 13.6666 15.0417 13.6666ZM5.41671 9.99998C6.0186 9.99998 6.6146 10.1185 7.17067 10.3489C7.72675 10.5792 8.23201 10.9168 8.65761 11.3424C9.08322 11.768 9.42082 12.2733 9.65116 12.8293C9.88149 13.3854 10 13.9814 10 14.5833V18.25H0.833374V14.5833C0.833374 13.3677 1.31626 12.2019 2.1758 11.3424C3.03534 10.4829 4.20113 9.99998 5.41671 9.99998Z" fill="white"/>
</svg>
