<svg width="16" height="18" viewBox="0 0 16 18" fill="none" xmlns="http://www.w3.org/2000/svg">
<path d="M8.00004 13.1667C11.0517 13.1667 13.7209 14.4792 15.1725 16.4375L13.6375 17.1634C12.4559 15.7634 10.3725 14.8334 8.00004 14.8334C5.62754 14.8334 3.5442 15.7634 2.36254 17.1634L0.828369 16.4367C2.28004 14.4784 4.94837 13.1667 8.00004 13.1667ZM8.00004 0.666687C9.1051 0.666687 10.1649 1.10567 10.9463 1.88708C11.7277 2.66848 12.1667 3.72829 12.1667 4.83335V7.33335C12.1666 8.40707 11.7521 9.43932 11.0095 10.2148C10.2669 10.9903 9.25358 11.4493 8.18087 11.4959L8.00004 11.5C6.89497 11.5 5.83516 11.061 5.05376 10.2796C4.27236 9.49823 3.83337 8.43842 3.83337 7.33335V4.83335C3.83343 3.75963 4.24799 2.72739 4.99058 1.95187C5.73318 1.17636 6.74649 0.717453 7.8192 0.670854L8.00004 0.666687ZM8.00004 2.33335C7.36236 2.33332 6.74877 2.57696 6.28482 3.01442C5.82086 3.45189 5.54161 4.05011 5.5042 4.68669L5.50004 4.83335V7.33335C5.49941 7.98411 5.75255 8.60946 6.20568 9.07654C6.6588 9.54361 7.2762 9.81559 7.92667 9.83469C8.57715 9.85378 9.20943 9.61849 9.68918 9.1788C10.1689 8.73912 10.4583 8.12969 10.4959 7.48002L10.5 7.33335V4.83335C10.5 4.17031 10.2366 3.53443 9.7678 3.06559C9.29896 2.59675 8.66308 2.33335 8.00004 2.33335V2.33335Z" fill="white"/>
</svg>
