<svg width="18" height="20" viewBox="0 0 18 20" fill="none" xmlns="http://www.w3.org/2000/svg">
<path d="M3.5 2.66665V6.33331H14.5V2.66665H16.3398C16.8421 2.66665 17.25 3.07456 17.25 3.5769V18.2564C17.25 18.7587 16.8421 19.1666 16.3398 19.1666H1.66025C1.15792 19.1666 0.75 18.7587 0.75 18.2564V3.5769C0.75 3.07456 1.15792 2.66665 1.66025 2.66665H3.5ZM6.25 14.5833H4.41667V16.4166H6.25V14.5833ZM6.25 11.8333H4.41667V13.6666H6.25V11.8333ZM6.25 9.08331H4.41667V10.9166H6.25V9.08331ZM12.6667 0.833313V4.49998H5.33333V0.833313H12.6667Z" fill="white"/>
</svg>
